<?xml version="1.0" encoding="utf-8"?>
<!-- Generator: Adobe Illustrator 16.0.0, SVG Export Plug-In . SVG Version: 6.00 Build 0)  -->
<!DOCTYPE svg PUBLIC "-//W3C//DTD SVG 1.1//EN" "http://www.w3.org/Graphics/SVG/1.1/DTD/svg11.dtd">
<svg version="1.1" id="Layer_1" xmlns="http://www.w3.org/2000/svg" xmlns:xlink="http://www.w3.org/1999/xlink" x="0px" y="0px"
	 width="512px" height="512px" viewBox="0 0 512 512" enable-background="new 0 0 512 512" xml:space="preserve">
<text transform="matrix(1 0 0 1 168.7834 543.8088)" fill="#FFFF00" font-family="'Verdana-Bold'" font-size="20">simpleicon.com</text>
<text transform="matrix(1 0 0 1 9.1931 567.8088)" fill="#FFFF00" font-family="'Verdana'" font-size="20">Collection Of Flat Icon, Symbols And Glyph Icons</text>
<g>
	<g>
		<path d="M256,462c-113.592,0-206-92.408-206-206S142.408,50,256,50s206,92.408,206,206S369.592,462,256,462z M256,74.719
			c-99.957,0-181.281,81.324-181.281,181.281c0,99.957,81.324,181.281,181.281,181.281S437.281,355.957,437.281,256
			C437.281,156.043,355.957,74.719,256,74.719z"/>
	</g>
	<g>
		<g>
			<path d="M235.611,278.491v15.123l-53.773-23.301v-12.936l53.773-23.306v15.234l-37.468,14.434L235.611,278.491z"/>
			<path d="M268.854,233.751l-14.972,61.628c-0.493,2.032-0.931,3.642-1.303,4.813c-0.372,1.177-0.94,2.092-1.71,2.746
				c-0.77,0.669-1.881,0.99-3.344,0.99c-3.626,0-5.452-1.574-5.452-4.702c0-0.819,0.357-2.866,1.071-6.146l14.917-61.629
				c0.779-3.274,1.528-5.518,2.237-6.729c0.72-1.217,2.107-1.82,4.175-1.82c1.785,0,3.144,0.427,4.089,1.287
				c0.94,0.855,1.413,2.037,1.413,3.526C269.976,228.817,269.599,230.828,268.854,233.751z"/>
			<path d="M330.162,270.314l-53.773,23.411v-15.128l37.574-14.751l-37.574-14.535v-15.022l53.773,23.19V270.314z"/>
		</g>
		<path d="M364.768,147.232H147.231c-8.193,0-14.832,6.644-14.832,14.831v187.875c0,8.188,6.639,14.831,14.832,14.831h217.537
			c8.192,0,14.831-6.644,14.831-14.831V162.063C379.599,153.87,372.961,147.232,364.768,147.232z M327.687,157.119
			c5.452,0,9.883,4.436,9.883,9.893c0,5.452-4.431,9.888-9.883,9.888c-5.451,0-9.888-4.436-9.888-9.888
			C317.8,161.555,322.236,157.119,327.687,157.119z M300.494,157.119c5.452,0,9.893,4.436,9.893,9.893
			c0,5.452-4.44,9.888-9.893,9.888s-9.883-4.436-9.883-9.888C290.611,161.555,295.042,157.119,300.494,157.119z M364.768,349.938
			H147.231V186.782h217.537V349.938z M354.881,176.9c-5.446,0-9.893-4.436-9.893-9.888c0-5.457,4.446-9.893,9.893-9.893
			c5.447,0,9.888,4.436,9.888,9.893C364.768,172.464,360.328,176.9,354.881,176.9z"/>
	</g>
</g>
</svg>
